<svg id="Capa_1" enable-background="new 0 0 512 512" height="512" viewBox="0 0 512 512" width="512" xmlns="http://www.w3.org/2000/svg"><g><g><path d="m386.572 218.19c-4.105-.579-7.89 2.298-8.458 6.4-3.704 26.753-15.785 51.018-34.938 70.171-48.069 48.07-126.283 48.07-174.353 0-19.153-19.152-31.234-43.418-34.938-70.171-.568-4.103-4.354-6.971-8.458-6.4-4.103.567-6.969 4.354-6.401 8.457 4.156 30.018 17.708 57.238 39.19 78.722 53.917 53.916 141.647 53.918 195.565 0 21.483-21.483 35.035-48.705 39.19-78.722.57-4.102-2.296-7.889-6.399-8.457z"/><path d="m125.389 197.479c4.11.556 7.88-2.328 8.434-6.433 3.625-26.937 15.728-51.362 35.001-70.636 48.069-48.068 126.283-48.068 174.353 0 19.383 19.384 31.506 43.956 35.058 71.062.535 4.078 4.269 7 8.411 6.462 4.107-.538 7-4.304 6.462-8.411-3.985-30.412-17.583-57.979-39.325-79.721-53.918-53.916-141.648-53.917-195.565.001-21.618 21.618-35.194 49.02-39.261 79.242-.553 4.105 2.327 7.882 6.432 8.434z"/><path d="m318.414 186.398-79.661-45.992c-7.476-4.315-16.402-4.316-23.878-.001-7.476 4.316-11.939 12.047-11.939 20.68v91.985c0 8.633 4.463 16.363 11.939 20.68 7.476 4.316 16.402 4.317 23.878 0l79.662-45.993c7.476-4.315 11.939-12.046 11.939-20.678 0-8.633-4.463-16.364-11.94-20.681zm-7.5 28.369-79.662 45.993c-4.007 2.312-7.544.77-8.878 0-1.334-.771-4.439-3.062-4.439-7.689v-91.985c0-4.626 3.104-6.918 4.439-7.688 2.659-1.537 5.901-1.718 8.878 0l79.662 45.992c4.007 2.313 4.44 6.148 4.44 7.689-.001 1.54-.434 5.374-4.44 7.688z"/></g><g><path d="m504.5 307.787c-4.143 0-7.5 3.358-7.5 7.5v6.098c0 24.087-19.596 43.683-43.683 43.683h-111.569c-9.278 0-17.931 4.987-22.581 13.016l-56.788 98.044c-2.843 4.909-9.919 4.901-12.758 0l-56.788-98.044c-4.65-8.028-13.302-13.016-22.58-13.016h-111.57c-24.087 0-43.683-19.596-43.683-43.683v-245.51c0-24.086 19.596-43.683 43.683-43.683h6.359c4.142 0 7.5-3.358 7.5-7.5s-3.358-7.5-7.5-7.5h-6.359c-32.358 0-58.683 26.325-58.683 58.683v245.51c0 32.358 26.325 58.683 58.683 58.683h111.569c3.944 0 7.623 2.121 9.601 5.534l56.788 98.043c8.614 14.872 30.093 14.893 38.719 0l56.788-98.044c1.977-3.414 5.655-5.534 9.601-5.534h111.569c32.357 0 58.683-26.325 58.683-58.683v-6.098c-.001-4.141-3.358-7.499-7.501-7.499z"/><path d="m453.317 17.192h-353.212c-4.142 0-7.5 3.358-7.5 7.5s3.358 7.5 7.5 7.5h353.212c24.087 0 43.683 19.596 43.683 43.683v205.328c0 4.142 3.357 7.5 7.5 7.5s7.5-3.358 7.5-7.5v-205.328c0-32.358-26.325-58.683-58.683-58.683z"/></g></g></svg>