<svg height="511pt" fill="white" stroke="white" viewBox="1 -32 511.99998 511" width="511pt" xmlns="http://www.w3.org/2000/svg"><path d="m464 .5h-416c-26.511719 0-48 21.492188-48 48v256c0 26.507812 21.488281 48 48 48h64v80c.003906 8.835938 7.167969 16 16.003906 15.996094 4.242188 0 8.308594-1.683594 11.308594-4.683594l91.3125-91.3125h233.375c26.511719 0 48-21.488281 48-48v-256c0-26.507812-21.492188-48-48-48zm16 304c0 8.835938-7.164062 16-16 16h-240c-4.242188 0-8.3125 1.6875-11.3125 4.6875l-68.6875 68.6875v-57.375c0-8.835938-7.164062-16-16-16h-80c-8.835938 0-16-7.164062-16-16v-256c0-8.835938 7.164062-16 16-16h416c8.835938 0 16 7.164062 16 16zm0 0"/><path d="m352 160.5h-80v-80c0-8.835938-7.164062-16-16-16s-16 7.164062-16 16v80h-80c-8.835938 0-16 7.164062-16 16s7.164062 16 16 16h80v80c0 8.835938 7.164062 16 16 16s16-7.164062 16-16v-80h80c8.835938 0 16-7.164062 16-16s-7.164062-16-16-16zm0 0"/></svg>
